<svg width="56" height="56" viewBox="0 0 56 56" fill="none" xmlns="http://www.w3.org/2000/svg">
<g filter="url(#filter0_d_2005_2)">
<rect x="4.12708" y="0.143372" width="47.8167" height="47.5224" rx="12" fill="white"/>
</g>
<rect x="5.67254" y="1.97473" width="46.4545" height="46.1686" rx="12" fill="url(#paint0_linear_2005_2)"/>
<path fill-rule="evenodd" clip-rule="evenodd" d="M35.7324 24.2329C35.9755 24.259 36.2165 24.2981 36.4553 24.3503C36.6942 24.4024 36.9295 24.4673 37.1614 24.5449C37.3933 24.6225 37.6202 24.7124 37.8424 24.8146C38.0646 24.9167 38.2806 25.0306 38.4905 25.1561C38.7003 25.2816 38.9029 25.4181 39.098 25.5655C39.2932 25.7129 39.4798 25.8704 39.658 26.038C39.8362 26.2056 40.0048 26.3823 40.1639 26.5681V14.9371C40.1639 14.8435 40.1593 14.7501 40.1502 14.6569C40.141 14.5638 40.1273 14.4713 40.1091 14.3795C40.0909 14.2877 40.0682 14.197 40.041 14.1074C40.0139 14.0178 39.9824 13.9298 39.9467 13.8433C39.9109 13.7568 39.871 13.6723 39.8269 13.5897C39.7828 13.5072 39.7348 13.427 39.6829 13.3491C39.6309 13.2713 39.5753 13.1962 39.516 13.1238C39.4567 13.0515 39.394 12.9822 39.3278 12.916C39.2617 12.8498 39.1925 12.787 39.1203 12.7276C39.048 12.6682 38.973 12.6125 38.8952 12.5605C38.8175 12.5085 38.7374 12.4605 38.6549 12.4163C38.5725 12.3722 38.488 12.3322 38.4017 12.2964C38.3153 12.2606 38.2273 12.229 38.1379 12.2019C38.0484 12.1747 37.9578 12.152 37.8661 12.1337C37.7744 12.1154 37.682 12.1017 37.589 12.0926C37.4959 12.0834 37.4026 12.0788 37.3091 12.0788H18.9172C18.8237 12.0788 18.7304 12.0834 18.6373 12.0926C18.5442 12.1017 18.4518 12.1154 18.36 12.1337C18.2683 12.152 18.1777 12.1747 18.0882 12.2019C17.9987 12.2291 17.9107 12.2606 17.8243 12.2964C17.7379 12.3323 17.6534 12.3723 17.571 12.4164C17.4885 12.4606 17.4083 12.5087 17.3306 12.5607C17.2528 12.6128 17.1778 12.6685 17.1055 12.7279C17.0332 12.7873 16.964 12.8501 16.8978 12.9164C16.8317 12.9826 16.769 13.0519 16.7097 13.1243C16.6504 13.1967 16.5947 13.2719 16.5428 13.3498C16.4909 13.4276 16.4428 13.5079 16.3988 13.5905C16.3547 13.6731 16.3148 13.7576 16.2791 13.8442C16.2433 13.9307 16.2119 14.0188 16.1847 14.1084C16.1576 14.198 16.135 14.2888 16.1168 14.3806C16.0986 14.4725 16.0849 14.565 16.0758 14.6582C16.0667 14.7514 16.0621 14.8448 16.0622 14.9385V33.3501C16.0622 33.4438 16.0668 33.5372 16.0759 33.6304C16.0851 33.7235 16.0988 33.8161 16.1171 33.9079C16.1353 33.9997 16.158 34.0905 16.1852 34.1801C16.2124 34.2697 16.2438 34.3577 16.2797 34.4442C16.3154 34.5307 16.3554 34.6153 16.3995 34.6978C16.4436 34.7804 16.4917 34.8606 16.5436 34.9385C16.5956 35.0163 16.6513 35.0914 16.7106 35.1638C16.77 35.2362 16.8327 35.3054 16.8989 35.3716C16.9651 35.4378 17.0343 35.5006 17.1066 35.56C17.1789 35.6194 17.254 35.6751 17.3318 35.7271C17.4096 35.7791 17.4897 35.8271 17.5722 35.8712C17.6547 35.9153 17.7392 35.9553 17.8256 35.9911C17.912 36.0269 18 36.0583 18.0895 36.0855C18.179 36.1126 18.2697 36.1353 18.3614 36.1535C18.4532 36.1718 18.5456 36.1854 18.6386 36.1946C18.7317 36.2037 18.825 36.2082 18.9186 36.2082H30.6025C30.4142 36.0489 30.2351 35.8798 30.0652 35.701C29.8953 35.5221 29.7356 35.3346 29.5861 35.1384C29.4365 34.9421 29.2981 34.7383 29.1708 34.527C29.0434 34.3157 28.9279 34.098 28.8242 33.8741C28.7205 33.6502 28.6293 33.4213 28.5505 33.1874C28.4717 32.9535 28.4058 32.7161 28.3529 32.475C28.2999 32.234 28.2602 31.9908 28.2337 31.7454C28.2071 31.5 28.194 31.2539 28.1943 31.0071C28.1943 27.2426 31.2417 24.1941 35.0011 24.1941C35.2456 24.1938 35.4894 24.2067 35.7324 24.2329Z" fill="url(#paint1_linear_2005_2)"/>
<path fill-rule="evenodd" clip-rule="evenodd" d="M20.9402 16.7728C20.9605 16.7237 20.9854 16.677 21.0149 16.6328C21.0444 16.5886 21.0779 16.5478 21.1155 16.5102C21.153 16.4726 21.1938 16.4391 21.238 16.4095C21.2821 16.38 21.3287 16.3551 21.3777 16.3347C21.4268 16.3144 21.4773 16.2991 21.5294 16.2887C21.5815 16.2783 21.634 16.2731 21.6871 16.2731H34.5408C34.5939 16.2731 34.6465 16.2783 34.6985 16.2887C34.7506 16.2991 34.8012 16.3144 34.8502 16.3347C34.8992 16.3551 34.9458 16.38 34.99 16.4095C35.0341 16.4391 35.0749 16.4726 35.1125 16.5102C35.15 16.5478 35.1835 16.5886 35.213 16.6328C35.2425 16.677 35.2674 16.7237 35.2877 16.7727C35.308 16.8218 35.3234 16.8725 35.3337 16.9246C35.3441 16.9767 35.3493 17.0293 35.3493 17.0825C35.3493 17.1356 35.3441 17.1882 35.3337 17.2404C35.3234 17.2925 35.308 17.3431 35.2877 17.3922C35.2674 17.4413 35.2425 17.4879 35.213 17.5321C35.1835 17.5763 35.15 17.6172 35.1125 17.6548C35.0749 17.6923 35.0341 17.7259 34.99 17.7554C34.9458 17.7849 34.8992 17.8099 34.8502 17.8302C34.8012 17.8505 34.7506 17.8659 34.6985 17.8763C34.6465 17.8866 34.5939 17.8918 34.5408 17.8918H21.6871C21.634 17.8918 21.5815 17.8866 21.5294 17.8763C21.4773 17.8659 21.4268 17.8505 21.3777 17.8302C21.3287 17.8099 21.2821 17.7849 21.238 17.7554C21.1938 17.7259 21.153 17.6923 21.1155 17.6548C21.0779 17.6172 21.0444 17.5763 21.0149 17.5321C20.9854 17.4879 20.9605 17.4413 20.9402 17.3922C20.9199 17.3431 20.9046 17.2925 20.8942 17.2404C20.8839 17.1882 20.8787 17.1356 20.8787 17.0825C20.8787 17.0293 20.8839 16.9767 20.8942 16.9246C20.9046 16.8725 20.9199 16.8218 20.9402 16.7728Z" fill="white"/>
<path fill-rule="evenodd" clip-rule="evenodd" d="M28.039 21.9784C28.0186 22.0275 27.9937 22.0742 27.9643 22.1184C27.9348 22.1625 27.9013 22.2034 27.8637 22.241C27.8262 22.2786 27.7854 22.3121 27.7412 22.3417C27.6971 22.3712 27.6505 22.3961 27.6014 22.4164C27.5524 22.4368 27.5019 22.4521 27.4498 22.4625C27.3977 22.4729 27.3452 22.4781 27.2921 22.4781H21.6871C21.634 22.4781 21.5815 22.4729 21.5294 22.4625C21.4773 22.4521 21.4268 22.4368 21.3777 22.4164C21.3287 22.3961 21.2821 22.3712 21.238 22.3417C21.1938 22.3121 21.153 22.2786 21.1155 22.241C21.0779 22.2034 21.0444 22.1625 21.0149 22.1184C20.9854 22.0742 20.9605 22.0275 20.9402 21.9784C20.9199 21.9293 20.9046 21.8787 20.8942 21.8266C20.8839 21.7745 20.8787 21.7219 20.8787 21.6687C20.8787 21.6156 20.8839 21.5629 20.8942 21.5108C20.9046 21.4587 20.9199 21.4081 20.9402 21.359C20.9605 21.3099 20.9854 21.2633 21.0149 21.2191C21.0444 21.1749 21.0779 21.134 21.1155 21.0964C21.153 21.0588 21.1938 21.0253 21.238 20.9958C21.2821 20.9662 21.3287 20.9413 21.3777 20.921C21.4268 20.9006 21.4773 20.8853 21.5294 20.8749C21.5815 20.8646 21.634 20.8594 21.6871 20.8594H27.2921C27.3452 20.8594 27.3977 20.8646 27.4498 20.8749C27.5019 20.8853 27.5524 20.9006 27.6014 20.921C27.6505 20.9413 27.6971 20.9662 27.7412 20.9958C27.7854 21.0253 27.8262 21.0588 27.8637 21.0964C27.9013 21.134 27.9348 21.1749 27.9643 21.2191C27.9937 21.2633 28.0186 21.3099 28.039 21.359C28.0593 21.4081 28.0746 21.4587 28.085 21.5108C28.0953 21.5629 28.1005 21.6156 28.1005 21.6687C28.1005 21.7219 28.0953 21.7745 28.085 21.8266C28.0746 21.8787 28.0593 21.9293 28.039 21.9784Z" fill="white"/>
<path fill-rule="evenodd" clip-rule="evenodd" d="M35.0013 36.2034C37.868 36.2034 40.1916 33.8768 40.1916 31.0069C40.1916 28.1369 37.868 25.8104 35.0013 25.8104C32.1347 25.8104 29.8108 28.137 29.8108 31.0069C29.8108 33.8768 32.1347 36.2034 35.0013 36.2034Z" fill="url(#paint2_linear_2005_2)"/>
<path fill-rule="evenodd" clip-rule="evenodd" d="M37.1379 33.4866C37.097 33.5035 37.0549 33.5163 37.0116 33.5249C36.9682 33.5335 36.9244 33.5378 36.8802 33.5378C36.836 33.5378 36.7922 33.5335 36.7489 33.5249C36.7055 33.5163 36.6634 33.5035 36.6225 33.4866C36.5817 33.4698 36.5428 33.4491 36.506 33.4245C36.4692 33.4 36.4351 33.3722 36.4038 33.341L34.5234 31.4592C34.4564 31.3921 34.4059 31.3142 34.3718 31.2256C34.3377 31.137 34.3231 31.0453 34.3278 30.9504V28.2597C34.3278 28.2154 34.3321 28.1715 34.3407 28.1281C34.3494 28.0846 34.3621 28.0425 34.3791 28.0016C34.396 27.9606 34.4167 27.9218 34.4413 27.8849C34.4659 27.8481 34.4938 27.8141 34.5251 27.7827C34.5564 27.7514 34.5904 27.7235 34.6272 27.6989C34.664 27.6743 34.7028 27.6535 34.7437 27.6365C34.7845 27.6196 34.8267 27.6068 34.87 27.5982C34.9134 27.5895 34.9572 27.5852 35.0015 27.5852C35.0457 27.5852 35.0895 27.5895 35.1329 27.5982C35.1763 27.6068 35.2184 27.6196 35.2593 27.6365C35.3001 27.6535 35.339 27.6743 35.3757 27.6989C35.4125 27.7235 35.4465 27.7514 35.4778 27.7827C35.5091 27.8141 35.537 27.8481 35.5616 27.8849C35.5862 27.9218 35.6069 27.9606 35.6239 28.0016C35.6408 28.0425 35.6536 28.0846 35.6622 28.1281C35.6708 28.1715 35.6751 28.2154 35.6751 28.2597V30.7039L37.3566 32.3873C37.3878 32.4187 37.4156 32.4528 37.4401 32.4896C37.4645 32.5264 37.4852 32.5653 37.5021 32.6062C37.5189 32.6471 37.5316 32.6893 37.5402 32.7327C37.5488 32.7761 37.5531 32.8199 37.5531 32.8641C37.5531 32.9084 37.5488 32.9522 37.5402 32.9956C37.5316 33.039 37.5189 33.0811 37.5021 33.122C37.4852 33.1629 37.4645 33.2018 37.4401 33.2386C37.4156 33.2755 37.3878 33.3096 37.3566 33.341C37.3253 33.3722 37.2912 33.4 37.2544 33.4245C37.2176 33.4491 37.1788 33.4698 37.1379 33.4866Z" fill="white"/>
<defs>
<filter id="filter0_d_2005_2" x="0.127075" y="0.143372" width="55.8167" height="55.5223" filterUnits="userSpaceOnUse" color-interpolation-filters="sRGB">
<feFlood flood-opacity="0" result="BackgroundImageFix"/>
<feColorMatrix in="SourceAlpha" type="matrix" values="0 0 0 0 0 0 0 0 0 0 0 0 0 0 0 0 0 0 127 0" result="hardAlpha"/>
<feOffset dy="4"/>
<feGaussianBlur stdDeviation="2"/>
<feComposite in2="hardAlpha" operator="out"/>
<feColorMatrix type="matrix" values="0 0 0 0 0.862745 0 0 0 0 0.870588 0 0 0 0 0.929412 0 0 0 1 0"/>
<feBlend mode="normal" in2="BackgroundImageFix" result="effect1_dropShadow_2005_2"/>
<feBlend mode="normal" in="SourceGraphic" in2="effect1_dropShadow_2005_2" result="shape"/>
</filter>
<linearGradient id="paint0_linear_2005_2" x1="8.21777" y1="5.01184" x2="47.9203" y2="46.5991" gradientUnits="userSpaceOnUse">
<stop stop-color="#6C9BFF" stop-opacity="0.2"/>
<stop offset="0.925" stop-color="#6C9BFF" stop-opacity="0"/>
</linearGradient>
<linearGradient id="paint1_linear_2005_2" x1="28.1131" y1="12.0788" x2="28.1131" y2="36.2082" gradientUnits="userSpaceOnUse">
<stop stop-color="#FD5F1C"/>
<stop offset="1" stop-color="#F3A00D"/>
</linearGradient>
<linearGradient id="paint2_linear_2005_2" x1="35.0012" y1="25.8104" x2="35.0012" y2="36.2034" gradientUnits="userSpaceOnUse">
<stop stop-color="#FD5F1C"/>
<stop offset="1" stop-color="#F3A00D"/>
</linearGradient>
</defs>
</svg>
